<svg width="32" height="32" viewBox="0 0 32 32" fill="none" xmlns="http://www.w3.org/2000/svg">
<path d="M8 13.0963C9.06667 8.82961 11.7333 6.69627 16 6.69627C22.4 6.69627 23.2 11.4963 26.4 12.2963C28.5333 12.8296 30.4 12.0296 32 9.89627C30.9333 14.1629 28.2667 16.2963 24 16.2963C17.6 16.2963 16.8 11.4963 13.6 10.6963C11.4667 10.1629 9.6 10.9629 8 13.0963ZM0 22.6963C1.06667 18.4296 3.73333 16.2963 8 16.2963C14.4 16.2963 15.2 21.0963 18.4 21.8963C20.5333 22.4296 22.4 21.6296 24 19.4963C22.9333 23.7629 20.2667 25.8963 16 25.8963C9.6 25.8963 8.8 21.0963 5.6 20.2963C3.46667 19.7629 1.6 20.5629 0 22.6963Z" fill="white"/>
</svg>
